<svg xmlns="http://www.w3.org/2000/svg" viewBox="0 0 280 44" width="280" height="44">
  <defs>
    <linearGradient id="emailGrad" x1="0%" y1="0%" x2="100%" y2="100%">
      <stop offset="0%" stop-color="#1e293b" />
      <stop offset="100%" stop-color="#0f172a" />
    </linearGradient>
    <linearGradient id="emailBorder" x1="0%" y1="0%" x2="100%" y2="0%">
      <stop offset="0%" stop-color="#38bdf8" />
      <stop offset="100%" stop-color="#2563eb" />
    </linearGradient>
  </defs>

  <!-- Button Background -->
  <rect x="1.5" y="1.5" width="277" height="41" rx="20.5" fill="url(#emailGrad)" stroke="url(#emailBorder)" stroke-width="1.8" />

  <!-- Gmail Icon -->
  <g transform="translate(18, 12)">
    <path fill="#EA4335" d="M1.5 0h17c.8 0 1.5.7 1.5 1.5v15c0 .8-.7 1.5-1.5 1.5h-17C.7 18 0 17.3 0 16.5v-15C0 .7.7 0 1.5 0z"/>
    <path fill="#FBBC05" d="M0 2.5l10 7.5L20 2.5v-1L10 9 0 1.5z"/>
    <path fill="#34A853" d="M0 2.5V16c0 .8.7 1.5 1.5 1.5H4V6.5L0 2.5z"/>
    <path fill="#4285F4" d="M20 2.5V16c0 .8-.7 1.5-1.5 1.5H16V6.5l4-4z"/>
    <path fill="#C5221F" d="M16 6.5l-6 4.5-6-4.5V17.5h12V6.5z"/>
  </g>

  <!-- Label & Address -->
  <text x="50" y="27" font-family="-apple-system, BlinkMacSystemFont, 'Segoe UI', Roboto, sans-serif" font-size="13.5" font-weight="600" fill="#f8fafc">
    Email <tspan font-weight="400" fill="#94a3b8">|</tspan> <tspan font-weight="500" fill="#38bdf8">contactme@saddamshah.me</tspan>
  </text>
</svg>
